<?xml version="1.0" standalone="no"?>
<!DOCTYPE svg PUBLIC "-//W3C//DTD SVG 20010904//EN"
 "http://www.w3.org/TR/2001/REC-SVG-20010904/DTD/svg10.dtd">
<svg version="1.0" xmlns="http://www.w3.org/2000/svg"
 width="512.000000pt" height="512.000000pt" viewBox="0 0 512.000000 512.000000"
 preserveAspectRatio="xMidYMid meet">

<g transform="translate(0.000000,512.000000) scale(0.100000,-0.100000)"
fill="#000000" stroke="none">
<path d="M1162 5099 c-105 -20 -212 -113 -253 -217 -20 -51 -23 -79 -27 -284
l-4 -228 1946 0 1946 0 0 -1575 0 -1575 -300 0 -300 0 0 -176 0 -175 333 3
c318 3 334 5 389 26 80 32 150 99 190 180 l33 67 0 1845 0 1845 -31 65 c-40
82 -92 134 -174 174 l-65 31 -1820 1 c-1001 1 -1839 -2 -1863 -7z m2356 -183
c37 -19 89 -75 101 -109 24 -64 8 -148 -38 -201 -28 -32 -88 -56 -141 -56
-197 0 -266 253 -97 355 49 29 131 34 175 11z m558 -22 c52 -42 79 -97 79
-160 -2 -139 -151 -226 -280 -164 -120 58 -140 216 -38 312 41 39 70 48 140
45 52 -2 68 -8 99 -33z m521 0 c86 -68 106 -180 49 -263 -50 -71 -157 -102
-239 -67 -73 30 -125 127 -112 208 8 48 58 114 105 140 55 30 148 21 197 -18z"/>
<path d="M378 4004 c-177 -43 -316 -181 -363 -361 -13 -49 -15 -269 -15 -1626
0 -1399 2 -1576 16 -1631 42 -165 153 -285 320 -348 l59 -23 882 -3 882 -3
-32 68 -32 68 -3 263 -3 262 -870 0 -869 0 2 1459 3 1459 25 27 c54 58 -10 55
1120 55 1142 0 1085 3 1127 -58 16 -24 18 -61 23 -372 l5 -345 173 -3 172 -2
0 351 c0 388 -4 426 -63 529 -66 117 -203 215 -336 240 -34 6 -434 10 -1110 9
-864 -1 -1066 -3 -1113 -15z m1231 -3507 c101 -67 113 -205 26 -293 -95 -95
-232 -77 -300 40 -56 96 -14 225 90 273 47 21 135 12 184 -20z"/>
<path d="M2503 2670 c-44 -9 -107 -45 -135 -76 -9 -11 -26 -40 -37 -64 -20
-44 -21 -60 -21 -1188 0 -947 2 -1148 14 -1176 19 -46 72 -104 120 -129 41
-22 42 -22 681 -22 636 0 640 0 680 21 51 28 91 68 119 119 l21 40 3 1124 c3
1255 6 1193 -66 1273 -20 23 -57 51 -82 62 -44 21 -59 21 -650 23 -333 1 -624
-3 -647 -7z m1187 -1215 l0 -955 -560 0 -560 0 0 955 0 955 560 0 560 0 0
-955z m-509 -1080 c37 -20 69 -70 69 -110 0 -71 -76 -134 -146 -120 -43 8 -92
57 -100 99 -12 68 51 146 119 146 15 0 41 -7 58 -15z"/>
</g>
</svg>
